<svg version="1.1" viewBox="0.0 0.0 553.1889763779527 503.28608923884514" fill="none" stroke="none" stroke-linecap="square" stroke-miterlimit="10" xmlns:xlink="http://www.w3.org/1999/xlink" xmlns="http://www.w3.org/2000/svg"><clipPath id="p.0"><path d="m0 0l553.18896 0l0 503.2861l-553.18896 0l0 -503.2861z" clip-rule="nonzero"/></clipPath><g clip-path="url(#p.0)"><path fill="#000000" fill-opacity="0.0" d="m0 0l553.18896 0l0 503.2861l-553.18896 0z" fill-rule="evenodd"/><path fill="#434343" d="m0 250.92783l0 0c0 -138.58434 123.52006 -250.92914 275.88977 -250.92914l0 0c152.36969 0 275.88977 112.3448 275.88977 250.92914l0 0c0 138.58432 -123.52008 250.92914 -275.88977 250.92914l0 0c-152.36972 0 -275.88977 -112.34482 -275.88977 -250.92914z" fill-rule="evenodd"/><path stroke="#000000" stroke-width="1.0" stroke-linejoin="round" stroke-linecap="butt" d="m0 250.92783l0 0c0 -138.58434 123.52006 -250.92914 275.88977 -250.92914l0 0c152.36969 0 275.88977 112.3448 275.88977 250.92914l0 0c0 138.58432 -123.52008 250.92914 -275.88977 250.92914l0 0c-152.36972 0 -275.88977 -112.34482 -275.88977 -250.92914z" fill-rule="evenodd"/><path fill="#ffffff" d="m270.8924 75.55905l-216.71129 248.07874l209.58269 -57.02887l38.496063 -39.92125l-151.12862 32.79265l108.35695 -126.892395z" fill-rule="evenodd"/><path stroke="#000000" stroke-width="1.0" stroke-linejoin="round" stroke-linecap="butt" d="m270.8924 75.55905l-216.71129 248.07874l209.58269 -57.02887l38.496063 -39.92125l-151.12862 32.79265l108.35695 -126.892395z" fill-rule="evenodd"/><path fill="#6bd04c" fill-opacity="0.8431" d="m216.71391 232.39108l39.92125 -44.196854l185.34909 -24.236221l-166.81104 139.72177l203.87927 5.70343l27.089233 28.514435l-309.3858 0l152.55382 -136.8714z" fill-rule="evenodd"/><path stroke="#000000" stroke-width="1.0" stroke-linejoin="round" stroke-linecap="butt" d="m216.71391 232.39108l39.92125 -44.196854l185.34909 -24.236221l-166.81104 139.72177l203.87927 5.70343l27.089233 28.514435l-309.3858 0l152.55382 -136.8714z" fill-rule="evenodd"/><path fill="#6bd04c" fill-opacity="0.8431" d="m364.99472 235.29738l0 68.25252l13.157776 1.6655884l-2.1939697 -30.797363l24.121582 -1.6655884l-3.2899475 31.629395l14.253723 -1.6640625l3.2899475 -71.58217l-16.447693 0.83203125l0 29.965347l-20.831635 0l2.1939697 -25.803665z" fill-rule="evenodd"/><path stroke="#000000" stroke-width="1.0" stroke-linejoin="round" stroke-linecap="butt" d="m364.99472 235.29738l0 68.25252l13.157776 1.6655884l-2.1939697 -30.797363l24.121582 -1.6655884l-3.2899475 31.629395l14.253723 -1.6640625l3.2899475 -71.58217l-16.447693 0.83203125l0 29.965347l-20.831635 0l2.1939697 -25.803665z" fill-rule="evenodd"/><path fill="#6bd04c" fill-opacity="0.8431" d="m447.2261 225.30963l-4.3859253 79.90552l21.927612 -3.3296509l-3.2899475 -76.57587z" fill-rule="evenodd"/><path stroke="#000000" stroke-width="1.0" stroke-linejoin="round" stroke-linecap="butt" d="m447.2261 225.30963l-4.3859253 79.90552l21.927612 -3.3296509l-3.2899475 -76.57587z" fill-rule="evenodd"/></g></svg>